<svg xmlns="http://www.w3.org/2000/svg" fill="none" viewBox="0 0 24 24" id="Open-Zeppelin--Streamline-Svg-Logos"
    height="24" width="24">
    <desc>Open Zeppelin Streamline Icon: https://streamlinehq.com</desc>
    <path fill="#14F195"
        d="M3.552325 13.830075v-0.95275H2.51475c-0.282145 0 -0.5435125 0.1481 -0.688025 0.389925l-0.3363675 0.562825h2.0619675Z"
        stroke-width="0.25"></path>
    <path fill="#14F195" d="M0.25 10.169925v0.95275h2.732825l0.569425 -0.95275H0.25Z" stroke-width="0.25"></path>
    <path fill="#14F195"
        d="m1.5579425 11.658875 -1.30489 2.17115h1.111735l1.5604125 -2.597475H2.3113c-0.30879 0 -0.594865 0.161875 -0.7533575 0.426325Z"
        stroke-width="0.25"></path>
    <path fill="#14F195"
        d="M5.917525 12.915925c-0.559025 0 -0.970375 -0.40635 -0.970375 -0.951625 0 -0.54005 0.414 -0.95165 0.973025 -0.95165 0.559025 0 0.973025 0.416825 0.973025 0.95165 0 0.54005 -0.416625 0.951625 -0.975675 0.951625Zm0.00265 -0.332925c0.35335 0 0.6065 -0.262175 0.6065 -0.6187 0 -0.3513 -0.25315 -0.6187 -0.6065 -0.6187 -0.356 0 -0.609125 0.2674 -0.609125 0.6187 0 0.356525 0.253125 0.6187 0.609125 0.6187Zm1.347375 0.901825v-1.981925h0.337525v0.175625h0.01845c0.036925 -0.057675 0.1635 -0.209725 0.41665 -0.209725 0.387625 0 0.65395 0.288375 0.65395 0.718325s-0.2637 0.7288 -0.6434 0.7288c-0.24525 0 -0.3771 -0.136325 -0.421925 -0.21235h-0.01845v0.78125h-0.3428Zm0.7067 -0.87825c0.2215 0 0.3718 -0.1704 0.3718 -0.4142 0 -0.251675 -0.1503 -0.414225 -0.37445 -0.414225 -0.226775 0 -0.369175 0.1809 -0.369175 0.414225 0 0.2569 0.158225 0.4142 0.371825 0.4142Zm1.700725 0.30935c-0.408725 0 -0.6988 -0.3041 -0.6988 -0.7157 0 -0.435175 0.2927 -0.731425 0.6988 -0.731425 0.445625 0 0.688225 0.3277 0.688225 0.7157v0.1075h-1.054775c0.01055 0.209725 0.1556 0.351275 0.3771 0.351275 0.16875 0 0.297975 -0.07865 0.345425 -0.191375h0.319075c-0.06855 0.280525 -0.316425 0.464025 -0.67505 0.464025Zm-0.361275 -0.865125h0.722525c-0.015825 -0.186125 -0.16085 -0.30935 -0.36125 -0.30935 -0.1925 0 -0.340175 0.136325 -0.361275 0.30935Zm1.418575 0.83105v-1.37895h0.326975v0.167775h0.018475c0.055375 -0.10225 0.1925 -0.201875 0.39025 -0.201875 0.311175 0 0.501025 0.2176 0.501025 0.511225v0.901825h-0.3428v-0.8127c0 -0.167775 -0.108125 -0.2805 -0.266325 -0.2805 -0.166125 0 -0.2848 0.131075 -0.2848 0.3041v0.7891h-0.3428Zm1.5768 0v-0.311975l0.95985 -1.2033v-0.01835h-0.925575v-0.3015h1.3633v0.30935l-0.95985 1.203325v0.020975h0.965125v0.301475h-1.40285Zm2.33095 0.034075c-0.408725 0 -0.6988 -0.3041 -0.6988 -0.7157 0 -0.435175 0.2927 -0.731425 0.6988 -0.731425 0.445625 0 0.688225 0.3277 0.688225 0.7157v0.1075h-1.054775c0.01055 0.209725 0.1556 0.351275 0.3771 0.351275 0.16875 0 0.297975 -0.07865 0.345425 -0.191375h0.319075c-0.06855 0.280525 -0.316425 0.464025 -0.67505 0.464025Zm-0.361275 -0.865125h0.722525c-0.015825 -0.186125 -0.16085 -0.30935 -0.36125 -0.30935 -0.1925 0 -0.340175 0.136325 -0.361275 0.30935Zm1.418575 1.434025v-1.981925h0.337525v0.175625h0.018475c0.0369 -0.057675 0.163475 -0.209725 0.416625 -0.209725 0.387625 0 0.65395 0.288375 0.65395 0.718325s-0.263675 0.7288 -0.6434 0.7288c-0.245225 0 -0.377075 -0.136325 -0.4219 -0.21235h-0.018475v0.78125h-0.3428Zm0.7067 -0.87825c0.2215 0 0.3718 -0.1704 0.3718 -0.4142 0 -0.251675 -0.1503 -0.414225 -0.374425 -0.414225 -0.226775 0 -0.369175 0.1809 -0.369175 0.414225 0 0.2569 0.158225 0.4142 0.3718 0.4142Zm1.08895 0.87825v-1.981925h0.337525v0.175625h0.018475c0.036925 -0.057675 0.163475 -0.209725 0.416625 -0.209725 0.387625 0 0.653975 0.288375 0.653975 0.718325s-0.2637 0.7288 -0.643425 0.7288c-0.245225 0 -0.377075 -0.136325 -0.4219 -0.21235h-0.018475v0.78125h-0.3428Zm0.7067 -0.87825c0.2215 0 0.371825 -0.1704 0.371825 -0.4142 0 -0.251675 -0.150325 -0.414225 -0.37445 -0.414225 -0.226775 0 -0.369175 0.1809 -0.369175 0.414225 0 0.2569 0.158225 0.4142 0.3718 0.4142Zm1.700725 0.30935c-0.408725 0 -0.698775 -0.3041 -0.698775 -0.7157 0 -0.435175 0.2927 -0.731425 0.698775 -0.731425 0.44565 0 0.68825 0.3277 0.68825 0.7157v0.1075h-1.054775c0.01055 0.209725 0.155575 0.351275 0.377075 0.351275 0.168775 0 0.297975 -0.07865 0.34545 -0.191375h0.31905c-0.06855 0.280525 -0.316425 0.464025 -0.67505 0.464025Zm-0.36125 -0.865125h0.722525c-0.015825 -0.186125 -0.16085 -0.30935 -0.361275 -0.30935 -0.1925 0 -0.34015 0.136325 -0.36125 0.30935Zm1.7561 0.83105c-0.2426 0 -0.379725 -0.144175 -0.379725 -0.388v-1.5782h0.3428v1.54675c0 0.07865 0.03955 0.1206 0.11075 0.1206h0.055375v0.29885h-0.1292Zm0.630125 -1.562475c-0.123925 0 -0.21095 -0.076025 -0.21095 -0.19925 0 -0.117975 0.087025 -0.1966 0.21095 -0.1966s0.21095 0.078625 0.21095 0.1966c0 0.123225 -0.087025 0.19925 -0.21095 0.19925Zm-0.1714 1.562475v-1.37895h0.3428v1.37895h-0.3428Zm0.75935 0v-1.37895h0.326975v0.167775h0.01845c0.055375 -0.10225 0.1925 -0.201875 0.390275 -0.201875 0.31115 0 0.501 0.2176 0.501 0.511225v0.901825h-0.3428v-0.8127c0 -0.167775 -0.1081 -0.2805 -0.266325 -0.2805 -0.166125 0 -0.284775 0.131075 -0.284775 0.3041v0.7891h-0.3428Z"
        stroke-width="0.25"></path>
</svg>