<svg xmlns="http://www.w3.org/2000/svg" viewBox="0 0 100 160" width="64" height="64" fill="none">
  <defs>
    <filter id="glow" x="-50%" y="-50%" width="200%" height="200%">
      <feGaussianBlur stdDeviation="8" result="blur"/>
      <feMerge>
        <feMergeNode in="blur"/>
        <feMergeNode in="SourceGraphic"/>
      </feMerge>
    </filter>
  </defs>
  <g filter="url(#glow)" fill="#14F195">
    <path opacity="0.8" d="M50 44.3013L25 1L0 44.3013L25 87.6025L50 44.3013Z"/>
    <path opacity="0.45" d="M50 44.3091L75 1.00781L25 1.00781L0 44.3091H50Z"/>
    <path opacity="0.6" d="M75 1.00781L25 1.00781L50 44.3091H100L75 1.00781Z"/>
    <path opacity="0.8" d="M50 115.699L75 159L100 115.699L75 72.3975L50 115.699Z"/>
    <path opacity="0.45" d="M50 115.691L25 158.993H75L100 115.691L50 115.691Z"/>
    <path opacity="0.6" d="M25 158.993H75L50 115.691L0 115.691L25 158.993Z"/>
  </g>
</svg>
